<svg width="31" height="31" viewBox="0 0 31 31" fill="none" xmlns="http://www.w3.org/2000/svg">
<g clip-path="url(#clip0_208_38)">
<path d="M31 5.17C30.9551 3.81311 30.3959 2.52404 29.436 1.56405C28.476 0.604053 27.1869 0.0449338 25.83 0L5.17 0C3.81311 0.0449338 2.52404 0.604053 1.56405 1.56405C0.604053 2.52404 0.0449338 3.81311 0 5.17L0 25.83C0.0449338 27.1869 0.604053 28.476 1.56405 29.436C2.52404 30.3959 3.81311 30.9551 5.17 31H15.5V19.29H11.71V14.12H15.5V12.12C15.5 8.65 18.11 5.52 21.31 5.52H25.49V10.69H21.31C20.9989 10.7531 20.723 10.9313 20.5376 11.189C20.3522 11.4467 20.2709 11.7649 20.31 12.08V14.14H25.48V19.31H20.32V31H25.83C27.1869 30.9551 28.476 30.3959 29.436 29.436C30.3959 28.476 30.9551 27.1869 31 25.83V5.17Z" fill="white"/>
</g>
<defs>
<clipPath id="clip0_208_38">
<rect width="31" height="31" fill="white"/>
</clipPath>
</defs>
</svg>
