<svg width="31" height="31" viewBox="0 0 31 31" fill="none" xmlns="http://www.w3.org/2000/svg">
<path d="M22.39 0.119995H8.60999C6.35912 0.122642 4.20119 1.01797 2.60958 2.60958C1.01797 4.20119 0.122642 6.35912 0.119995 8.60999V22.39C0.122642 24.6409 1.01797 26.7988 2.60958 28.3904C4.20119 29.982 6.35912 30.8773 8.60999 30.88H22.39C24.6409 30.8773 26.7988 29.982 28.3904 28.3904C29.982 26.7988 30.8773 24.6409 30.88 22.39V8.60999C30.8773 6.35912 29.982 4.20119 28.3904 2.60958C26.7988 1.01797 24.6409 0.122642 22.39 0.119995ZM28.15 22.38C28.15 23.9076 27.5431 25.3727 26.4629 26.4529C25.3827 27.5331 23.9176 28.14 22.39 28.14H8.60999C7.08235 28.14 5.61727 27.5331 4.53706 26.4529C3.45685 25.3727 2.84999 23.9076 2.84999 22.38V8.60999C2.84999 7.08235 3.45685 5.61727 4.53706 4.53706C5.61727 3.45685 7.08235 2.84999 8.60999 2.84999H22.39C23.9176 2.84999 25.3827 3.45685 26.4629 4.53706C27.5431 5.61727 28.15 7.08235 28.15 8.60999V22.38Z" fill="white"/>
<path d="M15.5 7.58002C13.9336 7.58002 12.4023 8.04452 11.0999 8.91478C9.79744 9.78504 8.78231 11.022 8.18286 12.4692C7.58342 13.9164 7.42658 15.5088 7.73217 17.0451C8.03777 18.5815 8.79207 19.9927 9.8997 21.1003C11.0073 22.2079 12.4185 22.9622 13.9549 23.2678C15.4912 23.5734 17.0837 23.4166 18.5308 22.8171C19.978 22.2177 21.215 21.2026 22.0852 19.9001C22.9555 18.5977 23.42 17.0664 23.42 15.5C23.4173 13.4003 22.5821 11.3874 21.0974 9.90265C19.6126 8.41794 17.5997 7.58266 15.5 7.58002ZM15.5 20.7C14.4739 20.698 13.4715 20.392 12.6193 19.8205C11.7671 19.249 11.1035 18.4377 10.7122 17.4892C10.3209 16.5407 10.2196 15.4975 10.4209 14.4914C10.6223 13.4853 11.1174 12.5614 11.8436 11.8366C12.5699 11.1118 13.4947 10.6185 14.5011 10.419C15.5076 10.2196 16.5507 10.3229 17.4984 10.716C18.4462 11.1092 19.2562 11.7744 19.826 12.6276C20.3959 13.4809 20.7 14.484 20.7 15.51C20.6973 16.8874 20.1483 18.2075 19.1734 19.1805C18.1985 20.1535 16.8774 20.7 15.5 20.7Z" fill="white"/>
<path d="M23.76 5.26003C23.2972 5.25808 22.848 5.4167 22.4891 5.70885C22.1301 6.001 21.8836 6.4086 21.7915 6.86216C21.6995 7.31573 21.7676 7.78719 21.9842 8.19617C22.2008 8.60516 22.5526 8.92635 22.9795 9.105C23.4065 9.28365 23.8822 9.3087 24.3255 9.17588C24.7689 9.04306 25.1524 8.76059 25.4108 8.37662C25.6692 7.99265 25.7864 7.53096 25.7425 7.07023C25.6986 6.6095 25.4963 6.17826 25.17 5.85003C24.7966 5.47444 24.2896 5.26226 23.76 5.26003Z" fill="white"/>
</svg>
